<?xml version="1.0" encoding="utf-8"?>
<!-- Generator: Adobe Illustrator 16.0.0, SVG Export Plug-In . SVG Version: 6.00 Build 0)  -->
<!DOCTYPE svg PUBLIC "-//W3C//DTD SVG 1.1//EN" "http://www.w3.org/Graphics/SVG/1.1/DTD/svg11.dtd">
<svg version="1.1" id="Capa_1" xmlns="http://www.w3.org/2000/svg" xmlns:xlink="http://www.w3.org/1999/xlink" x="0px" y="0px"
	 width="258.673px" height="585.229px" viewBox="66.619 20.657 258.673 585.229"
	 enable-background="new 66.619 20.657 258.673 585.229" xml:space="preserve">
<g>
	
		<linearGradient id="SVGID_1_" gradientUnits="userSpaceOnUse" x1="388.8103" y1="417.8076" x2="87.2871" y2="591.892" gradientTransform="matrix(1 0 0 -1 -8.3599 837.5977)">
		<stop  offset="0" style="stop-color:#004C8D"/>
		<stop  offset="0.1563" style="stop-color:#284D8F"/>
		<stop  offset="0.456" style="stop-color:#574C91"/>
		<stop  offset="0.8652" style="stop-color:#8E4893"/>
		<stop  offset="1" style="stop-color:#9F4694"/>
	</linearGradient>
	<path fill="url(#SVGID_1_)" d="M184.155,605.887c-72.049,0-117.536,0-117.536,0V465.817c0,0,36.339,0.018,71.894,0
		c48.525,0.11,70.299-20.673,70.348-68.049c0-33.713,0-377.111,0-377.111h116.432c0,0,0,379.563,0,448.268
		C325.291,556.45,275.942,605.389,184.155,605.887z"/>
</g>
<g id="XMLID_1_">
	<g>
		<path fill="#FFFFFF" d="M294.355,27.837h25.85c0,0-0.05,16.11-0.109,42.15C311.735,55.807,302.785,41.987,294.355,27.837z"/>
		<path fill="#FFFFFF" d="M320.046,89.707c-0.021,6.3-0.029,12.97-0.051,19.95c-10.399,1.27-20.899,1.9-31.25,3.53
			C299.075,105.197,309.546,97.417,320.046,89.707z"/>
		<path fill="#FFFFFF" d="M319.985,114.647c-0.03,12.97-0.061,26.93-0.101,41.55c-2.061-3.76-4.05-7.55-6.239-11.17
			c-5.67-9.34-11.99-18.25-17.07-27.93C304.355,116.137,312.195,115.547,319.985,114.647z"/>
		<path fill="#FFFFFF" d="M319.855,165.997c-0.011,5.3-0.03,10.68-0.04,16.11c-13.771,3.46-27.71,6.21-41.65,8.97
			c9.59-15.44,19.71-30.56,29.801-45.68c0.771,1.22,1.54,2.46,2.29,3.69C313.615,154.627,316.485,160.477,319.855,165.997z"/>
		<path fill="#FFFFFF" d="M319.805,187.267c-0.039,18.94-0.09,38.54-0.13,58.16c-10.891,4.63-21.779,9.22-31.431,16.15
			c-11.01-10.39-21.84-20.96-32.03-32.19c-0.01-0.01-0.028-0.03-0.04-0.04c2.49-4.8,5.07-9.56,7.73-14.26
			c0.72-0.44,1.21-1.18,1.149-2.02c3.101-5.45,6.301-10.84,9.551-16.19C289.715,193.857,304.855,190.967,319.805,187.267z"/>
		<path fill="#FFFFFF" d="M319.655,250.827c-0.021,13.46-0.05,26.91-0.08,40.14c-9.12-8.73-18.42-17.28-27.63-25.91
			C300.535,259.117,310.065,254.917,319.655,250.827z"/>
		<path fill="#FFFFFF" d="M319.525,308.307c-0.061,32.78-0.12,63.62-0.16,89.31c-7.25,0.21-14.5,0.22-21.75,0.17v-51.96
			c0-0.31-0.05-0.58-0.13-0.83c0.09-0.53,0.04-1.08-0.17-1.57C304.995,331.917,312.186,320.057,319.525,308.307z"/>
		<path fill="#FFFFFF" d="M319.355,402.617c-0.04,24.04-0.051,43.109-0.051,54.37c0,2.17-0.029,4.301-0.079,6.431
			c-13.012-20.74-25.83-41.62-40.921-60.88C291.985,402.757,305.686,403.007,319.355,402.617z"/>
		<path fill="#FFFFFF" d="M318.865,471.998c-0.021,0.35-0.05,0.699-0.069,1.04c-15.171,4.77-30.649,8.52-46.069,12.52
			c5.34-23.55,5.01-47.88,7.898-71.779C294.425,432.447,306.466,452.347,318.865,471.998z"/>
		<path fill="#FFFFFF" d="M318.385,478.397c-2.42,27.239-9.641,50.579-21.909,69.271c-2.812-3.12-5.631-6.221-8.45-9.311
			c-12.602-13.811-25.2-27.62-37.812-41.41c0.08-0.01,0.16-0.029,0.24-0.05C272.915,490.127,295.985,485.317,318.385,478.397z"/>
		<path fill="#FFFFFF" d="M304.766,54.387c4.85,7.83,9.659,15.68,14.229,23.67c-16.649-7.05-33.5-13.6-50.39-20.07
			c5.068-0.67,10.14-1.28,15.229-1.82c0.74,0.32,1.521,0.17,2.15-0.22C292.235,55.317,298.495,54.777,304.766,54.387z"/>
		<path fill="#FFFFFF" d="M291.625,118.417c3.7,7.24,8.09,14.06,12.48,20.89c-0.011,0.01-0.021,0.01-0.03,0.02
			c-16.43,0-32.86,0.1-49.229,1.52c8.369-7.31,16.979-14.38,25.721-21.29c0.37,0.09,0.779,0.11,1.22,0.01
			c3.18-0.72,6.391-1.29,9.61-1.77C291.445,117.997,291.516,118.207,291.625,118.417z"/>
		<path fill="#FFFFFF" d="M284.485,541.896c3.03,3.32,6.05,6.65,9.069,9.99c-8.221,11.33-18.449,20.78-30.75,28.189
			c2.79-18.351,5.659-36.68,6.091-55.26C274.105,530.517,279.285,536.208,284.485,541.896z"/>
		<path fill="#FFFFFF" d="M317.905,301.457c-9.43,14.81-18.561,29.82-28.28,44.44c-9.92,14.94-21.51,28.62-31.33,43.62
			c0.011-20.56,0.062-41.12,0.4-61.69C277.965,318.007,297.795,309.377,317.905,301.457z"/>
		<path fill="#FFFFFF" d="M292.615,350.337v47.41c-11.12-0.13-22.23-0.39-33.33-0.42
			C269.285,380.907,281.615,366.097,292.615,350.337z"/>
		<path fill="#FFFFFF" d="M288.535,27.837c4.311,7.32,8.79,14.53,13.26,21.75c-5.438,0.37-10.88,0.84-16.3,1.39
			c-7.56-7.62-14.93-15.43-22.38-23.15L288.535,27.837z"/>
		<path fill="#FFFFFF" d="M317.756,296.167c-20.021,7.83-39.761,16.37-58.961,26.02c0.37-18.86,1-37.7,2.091-56.53h21.569
			c0.37,0,0.71-0.07,0.99-0.19c0.29,0.12,0.63,0.19,1.01,0.19c0.26,0,0.5-0.04,0.72-0.1
			C296.005,275.777,307.025,285.837,317.756,296.167z"/>
		<path fill="#FFFFFF" d="M302.675,144.327c-14.01,21-28.04,42.03-40.63,63.91c-10.438-14.92-20.479-30.11-31.989-44.23
			c6.069-6.1,12.319-12.01,18.721-17.77c0.29,0.09,0.63,0.13,1.01,0.09C267.365,144.507,285.025,144.337,302.675,144.327z"/>
		<path fill="#FFFFFF" d="M279.995,260.657h-42.86c6.58-7.75,13.052-15.62,19.312-23.65
			C264.035,245.147,271.945,252.967,279.995,260.657z"/>
		<path fill="#FFFFFF" d="M266.285,62.427c17.92,6.86,35.811,13.8,53.44,21.34c-18.052,13.23-36.102,26.65-53.44,40.87V62.427z"/>
		<path fill="#FFFFFF" d="M256.146,27.827c7.688,7.91,15.26,15.95,22.979,23.83c-20.12,2.27-40.13,5.57-60.08,9.06
			c8.11-11.09,16.551-21.93,24.83-32.89H256.146z"/>
		<path fill="#FFFFFF" d="M261.315,59.457v0.01c-0.021,0.12-0.03,0.23-0.03,0.36v64.06c-14.47-18.97-25.49-40.439-41.43-58.24
			c13.77-2.4,27.56-4.73,41.41-6.68c0,0.15,0.02,0.29,0.05,0.44C261.325,59.427,261.315,59.437,261.315,59.457z"/>
		<path fill="#FFFFFF" d="M254.025,205.417c1.76,2.55,3.52,5.08,5.3,7.61c-2.88,5.13-5.68,10.3-8.37,15.54
			c-0.77,1.49,0.04,2.89,1.19,3.48c0.108,0.3,0.29,0.6,0.54,0.88c0.119,0.13,0.229,0.26,0.35,0.38
			c-12.01,15.44-24.75,30.24-37.76,44.84c0-21.46-0.01-44.17-0.01-66.82c12.55-2.34,25.14-4.46,37.85-5.67
			C253.455,205.627,253.755,205.547,254.025,205.417z"/>
		<path fill="#FFFFFF" d="M234.455,265.657h21.431c-0.5,8.65-0.899,17.3-1.229,25.96c-12.62-2.46-24.96-6.17-37.72-7.84
			c5.47-6.11,10.88-12.26,16.22-18.47C233.505,265.517,233.936,265.657,234.455,265.657z"/>
		<path fill="#FFFFFF" d="M257.485,402.127c0.28,0.12,0.6,0.2,0.97,0.2c4.4,0.01,8.812,0.05,13.22,0.11
			c0.262,0.489,0.682,0.89,1.262,1.09c0.09,0.239,0.229,0.489,0.42,0.729c0.979,1.24,1.96,2.49,2.93,3.75
			c-0.31,0.681-0.33,1.521-0.04,2.22c-0.14,0.271-0.24,0.58-0.29,0.931c-1,7.609-1.63,15.261-2.188,22.92
			c-23.03,4.521-46.49,6.021-69.642,9.841c4.42-7.021,7.55-15.221,9.352-24.561c13.39-5.91,27.21-10.811,40.29-17.4
			c0.55,0.35,1.18,0.42,1.778,0.28h0.011c0.091,0.01,0.171,0.01,0.25,0.01c0.199,0.05,0.421,0.08,0.649,0.08
			C256.845,402.327,257.186,402.257,257.485,402.127z"/>
		<path fill="#FFFFFF" d="M254.365,300.117c-0.61,19.17-0.88,38.36-0.99,57.54c-0.398,0.18-0.779,0.47-1.08,0.91
			c-2.8,4.03-4.81,8.55-7.68,12.53c-9.88-10.17-18.88-21.16-28.42-31.64C228.516,325.957,241.465,313.017,254.365,300.117z"/>
		<path fill="#FFFFFF" d="M253.335,366.317c-0.04,8.17-0.04,16.34-0.04,24.51c-2.29-4.91-4.239-9.94-6-15.08
			C249.646,372.807,251.455,369.537,253.335,366.317z"/>
		<path fill="#FFFFFF" d="M251.375,296.037c-0.01,0.01-0.01,0.01-0.02,0.02c-12.19,12.19-24.38,24.39-36.07,37.06
			c-0.01-13.63-0.01-28.67-0.01-44.55C227.516,290.007,239.335,293.547,251.375,296.037z"/>
		<path fill="#FFFFFF" d="M242.045,375.827c2.53,7.51,5.41,14.86,9.07,21.88c-11.92,5.99-24.44,10.59-36.7,15.831
			c0.57-4.5,0.87-9.24,0.87-14.21c0-6.9,0-26.54,0-53.42c8.86,9.91,17.36,20.14,26.68,29.62
			C241.995,375.627,242.016,375.727,242.045,375.827z"/>
		<path fill="#FFFFFF" d="M188.405,599.027c-2.78-4.2-5.5-8.439-8.19-12.689c8.73-13.09,14.931-28.021,26-39.41
			c1.11-1.13,0.812-2.569-0.028-3.45c0.028-0.319,0.01-0.659-0.062-0.97c0.2-0.84,0.021-1.79-0.56-2.431
			c-0.182-1.109-0.36-2.22-0.54-3.329c0.18-0.131,0.358-0.28,0.529-0.49c2.591-3.16,5.189-6.3,7.819-9.431
			c12.42,20.051,25.87,39.431,39.9,58.37C235.445,593.727,213.855,598.487,188.405,599.027z"/>
		<path fill="#FFFFFF" d="M226.535,167.577c8.7,10.68,16.53,21.99,24.351,33.31c-11.961,1.23-23.801,3.19-35.619,5.38
			c0-8.92,0-17.81,0-26.59C218.936,175.557,222.695,171.517,226.535,167.577z"/>
		<path fill="#FFFFFF" d="M259.775,130.037c-15.67,13.18-30.69,27.09-44.51,42.18c0-40.16-0.012-77.54-0.012-104.21
			C232.516,86.837,243.976,110.047,259.775,130.037z"/>
		<path fill="#FFFFFF" d="M234.535,487.208c1.14,1.25,2.28,2.489,3.42,3.739c-11.59,12.87-22.899,25.971-33.93,39.341
			c-2.29-15.171-4.13-30.391-5.72-45.65c8.939-1.71,17.85-3.55,26.81-5.069c0.71-0.12,1.189-0.45,1.479-0.899
			C229.266,481.498,231.905,484.347,234.535,487.208z"/>
		<path fill="#FFFFFF" d="M215.245,27.817h22.41c-7.49,9.87-15.07,19.66-22.4,29.66C215.255,38.987,215.245,27.817,215.245,27.817z"
			/>
		<path fill="#FFFFFF" d="M257.445,582.507c-14.33-19.37-28.04-39.189-40.68-59.71c8.039-9.521,16.25-18.899,24.579-28.16
			c7.671,8.38,15.329,16.771,22.989,25.17c-0.239,0.36-0.38,0.811-0.38,1.351C263.845,541.807,260.525,562.146,257.445,582.507z"/>
		<path fill="#FFFFFF" d="M204.455,448.897c22.9-3.851,46.12-5.351,68.94-9.681c-1.13,15.88-2.25,31.76-6.021,47.271
			c-0.04,0.17-0.06,0.33-0.069,0.489c-6.079,1.62-12.159,3.28-18.189,5.101c-0.25,0.07-0.46,0.171-0.65,0.29
			c-0.358-0.229-0.81-0.38-1.35-0.38c-0.46,0-0.85,0.101-1.18,0.279c-2.62-2.869-5.25-5.729-7.87-8.6
			c-11.04-12.04-22.38-23.9-34.58-34.78C203.785,448.947,204.105,448.958,204.455,448.897z"/>
		<path fill="#FFFFFF" d="M198.685,451.257c8.47,7.47,16.5,15.46,24.319,23.63c-18.58,3.2-36.97,7.75-55.77,9.479
			c2.17-5.489,4.39-10.96,6.57-16.449C183.885,464.227,192.215,458.637,198.685,451.257z"/>
		<path fill="#FFFFFF" d="M201.325,544.837c-9.979,10.88-16.12,24.489-24.03,36.85c-7.81-12.479-15.399-25.13-23.229-37.59
			c1.479-3.5,2.87-7.05,4.05-10.7c0.31-0.569,0.39-1.229,0.1-1.85c0.07-0.32,0.061-0.681-0.02-1.061
			c-1.021-4.649-2.01-9.311-2.99-13.971c0.44-0.29,0.8-0.72,0.99-1.359c2.61-8.681,5.729-17.181,9.01-25.609
			c9.48-0.76,18.851-2.271,28.19-3.99c1.96,18.66,4.279,37.29,7.35,55.801c0,0.01,0,0.01,0,0.021c-0.1,0.609,0,1.26,0.3,1.79
			C201.135,543.727,201.226,544.277,201.325,544.837z"/>
		<path fill="#FFFFFF" d="M167.685,469.857c-5,12.529-10.141,24.989-14.36,37.8c-2.479-11.58-5.04-23.13-8.09-34.569
			C153.405,472.797,160.895,471.708,167.685,469.857z"/>
		<path fill="#FFFFFF" d="M140.675,475.387c4.44,16.86,7.87,33.979,11.53,51.04c-10.75-8.521-21.979-16.51-33.82-23.43
			c-0.539-0.32-1.069-0.4-1.56-0.33c-0.05-0.301-0.16-0.591-0.3-0.851c0.13-0.229,0.22-0.5,0.28-0.771
			C124.835,492.577,132.785,484.007,140.675,475.387z"/>
		<path fill="#FFFFFF" d="M152.885,533.337c-3.63,10.859-8.659,21.05-13.289,31.51c-4.011,9.07-5.591,19-9.971,27.88
			c-4.49-28.01-6.54-56.38-11.85-84.27C130.095,515.807,141.765,524.297,152.885,533.337z"/>
		<path fill="#FFFFFF" d="M182.505,599.077c-19.279,0-36.149-0.029-50.479-0.061c0.03-0.21,0.05-0.409,0.07-0.619
			c0.189-0.171,0.369-0.381,0.52-0.641c5.26-9.189,7.18-19.67,10.93-29.47c2.431-6.352,5.33-12.461,8.101-18.641
			c7.68,12.289,15.16,24.71,22.88,36.97c0.03,0.74,0.479,1.381,1.13,1.79C177.915,591.987,180.195,595.538,182.505,599.077z"/>
		<path fill="#FFFFFF" d="M95.965,473.017c10.95,0.07,24.98,0.141,39.99,0.141c-12.82,14-25.78,27.859-39.12,41.381
			C96.605,500.697,96.235,486.857,95.965,473.017z"/>
		<path fill="#FFFFFF" d="M112.195,505.897c5.689,28.159,7.76,56.88,12.14,85.239c-9.489-12.029-18.3-24.64-27.359-37.05
			c0.159-10.86,0.12-21.7-0.03-32.561C102.085,516.367,107.165,511.157,112.195,505.897z"/>
		<path fill="#FFFFFF" d="M93.195,557.297c10.24,14.01,20.16,28.29,31.08,41.7c-33.16-0.091-50.66-0.23-50.66-0.23l-0.04-66.829
			c6.43,7.649,12.48,15.63,18.41,23.71C92.115,556.447,92.585,556.998,93.195,557.297z"/>
		<path fill="#FFFFFF" d="M90.965,472.987c0.48,24.801,1.28,49.601,1.08,74.409c-5.91-7.92-11.979-15.699-18.47-23.119l-0.03-51.439
			C73.545,472.837,80.245,472.907,90.965,472.987z"/>
	</g>
</g>
</svg>
