<?xml version="1.0" encoding="utf-8"?>
<!-- Generator: Adobe Illustrator 16.0.0, SVG Export Plug-In . SVG Version: 6.00 Build 0)  -->
<!DOCTYPE svg PUBLIC "-//W3C//DTD SVG 1.1//EN" "http://www.w3.org/Graphics/SVG/1.1/DTD/svg11.dtd">
<svg version="1.1" id="Capa_1" xmlns="http://www.w3.org/2000/svg" xmlns:xlink="http://www.w3.org/1999/xlink" x="0px" y="0px"
	 width="339.645px" height="141.265px" viewBox="30.117 653.559 339.645 141.265"
	 enable-background="new 30.117 653.559 339.645 141.265" xml:space="preserve">
<g>
	
		<linearGradient id="SVGID_1_" gradientUnits="userSpaceOnUse" x1="86.3953" y1="-27.8618" x2="86.3953" y2="212.4937" gradientTransform="matrix(1 0 0 -1 -8.3599 837.5977)">
		<stop  offset="0" style="stop-color:#2BBDEF"/>
		<stop  offset="0.0622" style="stop-color:#26B8EA"/>
		<stop  offset="0.1502" style="stop-color:#19ABDC"/>
		<stop  offset="0.2536" style="stop-color:#0095C5"/>
		<stop  offset="0.3688" style="stop-color:#0078A6"/>
		<stop  offset="0.4923" style="stop-color:#005784"/>
		<stop  offset="0.537" style="stop-color:#004B78"/>
		<stop  offset="0.6074" style="stop-color:#2C4B7E"/>
		<stop  offset="0.7783" style="stop-color:#5A488B"/>
		<stop  offset="0.9152" style="stop-color:#724491"/>
		<stop  offset="1" style="stop-color:#7A4293"/>
	</linearGradient>
	<path fill="url(#SVGID_1_)" d="M31.298,746.057H53.47c-2.097,15.386,3.225,24.384,14.916,24.384
		c12.98,0,20.317-7.354,22.736-23.607l9.917-67.826H75.16l3.467-23.512h47.328l-13.384,91.338
		c-4.838,32.896-19.351,47.99-46.28,47.99C39.28,794.823,25.896,776.922,31.298,746.057z"/>
	
		<linearGradient id="SVGID_2_" gradientUnits="userSpaceOnUse" x1="155.8645" y1="-27.8618" x2="155.8645" y2="212.4937" gradientTransform="matrix(1 0 0 -1 -8.3599 837.5977)">
		<stop  offset="0" style="stop-color:#2BBDEF"/>
		<stop  offset="0.0622" style="stop-color:#26B8EA"/>
		<stop  offset="0.1502" style="stop-color:#19ABDC"/>
		<stop  offset="0.2536" style="stop-color:#0095C5"/>
		<stop  offset="0.3688" style="stop-color:#0078A6"/>
		<stop  offset="0.4923" style="stop-color:#005784"/>
		<stop  offset="0.537" style="stop-color:#004B78"/>
		<stop  offset="0.6074" style="stop-color:#2C4B7E"/>
		<stop  offset="0.7783" style="stop-color:#5A488B"/>
		<stop  offset="0.9152" style="stop-color:#724491"/>
		<stop  offset="1" style="stop-color:#7A4293"/>
	</linearGradient>
	<path fill="url(#SVGID_2_)" d="M154.52,655.396h26.525c5.806,45.863,9.998,91.63,12.578,137.49h-21.77
		c-0.322-8.707-0.727-17.317-1.209-26.026h-38.057l-9.433,26.026h-21.77L154.52,655.396z M169.275,743.252
		c-1.29-19.352-2.822-38.703-4.354-58.055h-2.58l-21.124,58.055H169.275z"/>
	
		<linearGradient id="SVGID_3_" gradientUnits="userSpaceOnUse" x1="254.5369" y1="-27.8618" x2="254.5368" y2="212.4937" gradientTransform="matrix(1 0 0 -1 -8.3599 837.5977)">
		<stop  offset="0" style="stop-color:#2BBDEF"/>
		<stop  offset="0.0622" style="stop-color:#26B8EA"/>
		<stop  offset="0.1502" style="stop-color:#19ABDC"/>
		<stop  offset="0.2536" style="stop-color:#0095C5"/>
		<stop  offset="0.3688" style="stop-color:#0078A6"/>
		<stop  offset="0.4923" style="stop-color:#005784"/>
		<stop  offset="0.537" style="stop-color:#004B78"/>
		<stop  offset="0.6074" style="stop-color:#2C4B7E"/>
		<stop  offset="0.7783" style="stop-color:#5A488B"/>
		<stop  offset="0.9152" style="stop-color:#724491"/>
		<stop  offset="1" style="stop-color:#7A4293"/>
	</linearGradient>
	<path fill="url(#SVGID_3_)" d="M233.558,679.102h-30.88l3.467-23.606h83.528l-3.467,23.606h-31.202l-16.689,113.785h-21.446
		L233.558,679.102z"/>
	
		<linearGradient id="SVGID_4_" gradientUnits="userSpaceOnUse" x1="330.3103" y1="-27.8618" x2="330.3103" y2="212.4937" gradientTransform="matrix(1 0 0 -1 -8.3599 837.5977)">
		<stop  offset="0" style="stop-color:#2BBDEF"/>
		<stop  offset="0.0622" style="stop-color:#26B8EA"/>
		<stop  offset="0.1502" style="stop-color:#19ABDC"/>
		<stop  offset="0.2536" style="stop-color:#0095C5"/>
		<stop  offset="0.3688" style="stop-color:#0078A6"/>
		<stop  offset="0.4923" style="stop-color:#005784"/>
		<stop  offset="0.537" style="stop-color:#004B78"/>
		<stop  offset="0.6074" style="stop-color:#2C4B7E"/>
		<stop  offset="0.7783" style="stop-color:#5A488B"/>
		<stop  offset="0.9152" style="stop-color:#724491"/>
		<stop  offset="1" style="stop-color:#7A4293"/>
	</linearGradient>
	<path fill="url(#SVGID_4_)" d="M274.137,742.284c0-52.248,27.091-88.726,66.194-88.726c12.98,0,22.173,4.16,29.43,13.449
		l-12.336,21.771c-5.645-7.449-11.771-10.836-19.433-10.836c-23.864,0-41.442,26.993-41.442,63.666
		c0,19.254,8.869,28.832,26.365,28.832c9.191,0,18.546-1.937,28.06-5.806l1.129,23.607c-11.53,4.451-23.141,6.58-34.589,6.58
		C288.649,794.823,274.137,777.309,274.137,742.284z"/>
</g>
</svg>
